<svg width="508" height="508" viewBox="0 0 508 508" fill="none" xmlns="http://www.w3.org/2000/svg">
<path d="M254 508C394.28 508 508 394.28 508 254C508 113.72 394.28 0 254 0C113.72 0 0 113.72 0 254C0 394.28 113.72 508 254 508Z" fill="#54D38A"/>
<path d="M372 190C372 188.8 372.4 187.2 372.4 185.6C372.4 156 348.4 132 318.8 132C306 132 294.4 136.4 285.2 144C271.6 118 244.4 100 213.2 100C168.4 100 132.4 136 132.4 180.8C132.4 184 132.4 186.8 132.8 190C99.6001 193.2 73.6001 221.2 73.6001 255.2C73.6001 291.2 102.8 320.8 139.2 320.8H368.8C404.8 320.8 434.4 291.6 434.4 255.2C434.4 220 406.8 191.6 372 190Z" fill="white"/>
<path d="M324 294H281.2V364.8H219.2V294H176.4L250.4 210.4L324 294Z" fill="#324A5E"/>
<path d="M281.2 376.4H219.2V385.6H281.2V376.4Z" fill="#324A5E"/>
<path d="M281.2 398.801H219.2V408.001H281.2V398.801Z" fill="#324A5E"/>
</svg>
