<svg height="512" viewBox="0 0 512 512" width="512" xmlns="http://www.w3.org/2000/svg"><path d="m376 64a48.054 48.054 0 0 0 -48 48v16a32.036 32.036 0 0 1 -32 32h-8v16h8a48.054 48.054 0 0 0 48-48v-16a32 32 0 0 1 64 0v96h16v-96a48.054 48.054 0 0 0 -48-48z" fill="#55525b"/><path d="m368 208h96a32 32 0 0 1 32 32v128a80 80 0 0 1 -80 80 80 80 0 0 1 -80-80v-128a32 32 0 0 1 32-32z" fill="#353744"/><path d="m368 208h96a32 32 0 0 1 32 32v96a80 80 0 0 1 -80 80 80 80 0 0 1 -80-80v-96a32 32 0 0 1 32-32z" fill="#55525b"/><path d="m408 208h16a0 0 0 0 1 0 0v104a8 8 0 0 1 -8 8 8 8 0 0 1 -8-8v-104a0 0 0 0 1 0 0z" fill="#353744"/><rect fill="#d7e6f0" height="64" rx="18.667" width="37.333" x="397.333" y="234.667"/><path d="m416 274.667a18.668 18.668 0 0 1 -18.667-18.667v24a18.667 18.667 0 0 0 37.334 0v-24a18.668 18.668 0 0 1 -18.667 18.667z" fill="#a5c3dc"/><path d="m256 448h-208a32 32 0 0 1 -32-32v-320a32 32 0 0 1 32-32h160l80 72v280a32 32 0 0 1 -32 32z" fill="#fabe19"/><g fill="#f5871e"><path d="m208 64v40a32 32 0 0 0 32 32h48z"/><rect height="32" rx="16" width="120" x="48" y="184"/><rect height="32" rx="16" width="120" x="48" y="264"/><rect height="32" rx="16" width="120" x="48" y="344"/></g><path d="m216 222.667h-.109a12 12 0 0 1 -8.529-3.67l-15.71-16.297a12 12 0 1 1 17.277-16.658l7.227 7.494 23.359-23.358a12 12 0 1 1 16.97 16.97l-32 32a12 12 0 0 1 -8.485 3.519z" fill="#6478b9"/><path d="m216 305.333h-.109a12 12 0 0 1 -8.529-3.67l-15.709-16.291a12 12 0 1 1 17.276-16.658l7.227 7.494 23.359-23.359a12 12 0 1 1 16.97 16.97l-32 32a12 12 0 0 1 -8.485 3.514z" fill="#6478b9"/><path d="m216 380h-.109a12 12 0 0 1 -8.529-3.67l-15.709-16.291a12 12 0 1 1 17.276-16.658l7.227 7.494 23.359-23.359a12 12 0 0 1 16.97 16.97l-32 32a12 12 0 0 1 -8.485 3.514z" fill="#6478b9"/></svg>